<svg width="32" height="32" viewBox="0 0 32 32" fill="none" xmlns="http://www.w3.org/2000/svg">
<path d="M0 14C0 6.26801 6.26801 0 14 0H18C25.732 0 32 6.26801 32 14V18C32 25.732 25.732 32 18 32H14C6.26801 32 0 25.732 0 18V14Z" fill="#F4B942"/>
<g clip-path="url(#clip0_1_148)">
<path d="M17 12.6667C17.1841 12.6667 17.3333 12.5174 17.3333 12.3333C17.3333 12.1492 17.1841 12 17 12C16.8159 12 16.6667 12.1492 16.6667 12.3333C16.6667 12.5174 16.8159 12.6667 17 12.6667Z" fill="white" stroke="white" stroke-width="1.33333" stroke-linecap="round" stroke-linejoin="round"/>
<path d="M19.6667 15.3333C19.8508 15.3333 20 15.1841 20 15C20 14.8159 19.8508 14.6666 19.6667 14.6666C19.4826 14.6666 19.3333 14.8159 19.3333 15C19.3333 15.1841 19.4826 15.3333 19.6667 15.3333Z" fill="white" stroke="white" stroke-width="1.33333" stroke-linecap="round" stroke-linejoin="round"/>
<path d="M13.6667 13.3333C13.8508 13.3333 14 13.1841 14 13C14 12.8159 13.8508 12.6666 13.6667 12.6666C13.4826 12.6666 13.3333 12.8159 13.3333 13C13.3333 13.1841 13.4826 13.3333 13.6667 13.3333Z" fill="white" stroke="white" stroke-width="1.33333" stroke-linecap="round" stroke-linejoin="round"/>
<path d="M12.3333 16.6667C12.5174 16.6667 12.6667 16.5174 12.6667 16.3333C12.6667 16.1492 12.5174 16 12.3333 16C12.1492 16 12 16.1492 12 16.3333C12 16.5174 12.1492 16.6667 12.3333 16.6667Z" fill="white" stroke="white" stroke-width="1.33333" stroke-linecap="round" stroke-linejoin="round"/>
<path d="M16 9.33337C12.3333 9.33337 9.33334 12.3334 9.33334 16C9.33334 19.6667 12.3333 22.6667 16 22.6667C16.6173 22.6667 17.0987 22.1694 17.0987 21.5414C17.0987 21.25 16.9787 20.9847 16.8073 20.7914C16.614 20.5987 16.5153 20.3567 16.5153 20.0414C16.5128 19.8946 16.5398 19.7489 16.5948 19.6129C16.6498 19.4768 16.7316 19.3532 16.8354 19.2494C16.9392 19.1457 17.0628 19.0639 17.1988 19.0089C17.3349 18.9539 17.4806 18.9268 17.6273 18.9294H18.958C20.992 18.9294 22.6613 17.2607 22.6613 15.2267C22.6433 12.008 19.6407 9.33337 16 9.33337Z" stroke="white" stroke-width="1.33333" stroke-linecap="round" stroke-linejoin="round"/>
</g>
<defs>
<clipPath id="clip0_1_148">
<rect width="16" height="16" fill="white" transform="translate(8 8)"/>
</clipPath>
</defs>
</svg>
